<svg xmlns="http://www.w3.org/2000/svg" width="820" height="460" viewBox="0 0 820 460">
  <style>
    .bg { fill: #0d1117; }
    .t { font-family: 'JetBrains Mono', 'Fira Code', 'SF Mono', 'Menlo', monospace; font-size: 12px; fill: #e6edf3; }
    .dim { fill: #484f58; }
    .green { fill: #3fb950; }
    .red { fill: #f85149; }
    .yellow { fill: #d29922; }
    .cyan { fill: #58a6ff; }
    .orange { fill: #d18616; }
    .bold { font-weight: bold; }
    .header-bg { fill: #d18616; }
    .sel-bg { fill: #d18616; }
    .border { fill: #30363d; }
    .title-bar { fill: #161b22; }
  </style>

  <!-- Terminal window -->
  <rect class="bg" width="820" height="460" rx="8"/>

  <!-- Title bar -->
  <rect class="title-bar" width="820" height="28" rx="8"/>
  <rect class="title-bar" width="820" height="14" y="14"/>
  <circle fill="#ff5f57" cx="16" cy="14" r="5"/>
  <circle fill="#febc2e" cx="32" cy="14" r="5"/>
  <circle fill="#28c840" cx="48" cy="14" r="5"/>
  <text class="t dim" x="370" y="18" text-anchor="middle" font-size="11">ctop</text>

  <!-- Header border top -->
  <rect class="border" x="8" y="36" width="804" height="1"/>

  <!-- Header bar -->
  <rect class="header-bg" x="8" y="37" width="804" height="22"/>
  <text class="t bold" x="250" y="52" fill="#ffffff">CTOP &#8212; Claude Terminal Operations Panel</text>

  <!-- Header border bottom -->
  <rect class="border" x="8" y="59" width="804" height="1"/>

  <!-- Stats line -->
  <text class="t dim" x="14" y="76">Active:</text>
  <text class="t green" x="66" y="76">3</text>
  <text class="t dim" x="78" y="76">| Dead/Stopped:</text>
  <text class="t red" x="188" y="76">1</text>
  <text class="t dim" x="200" y="76">| Total Cost:</text>
  <text class="t green" x="296" y="76">$2.45</text>
  <text class="t dim" x="340" y="76">| Notif:</text>
  <text class="t green" x="392" y="76">ON</text>
  <text class="t dim" x="416" y="76">| 2:34:12 PM</text>

  <!-- Separator -->
  <rect class="border" x="8" y="84" width="804" height="1"/>

  <!-- Column headers -->
  <text class="t cyan bold" x="20" y="100">PID</text>
  <text class="t cyan bold" x="72" y="100">STATUS</text>
  <text class="t cyan bold" x="142" y="100">CTX</text>
  <text class="t cyan bold" x="186" y="100">STARTED</text>
  <text class="t cyan bold" x="262" y="100">BRANCH</text>
  <text class="t cyan bold" x="440" y="100">SLUG</text>
  <text class="t cyan bold" x="570" y="100">MODEL</text>
  <text class="t cyan bold" x="668" y="100">COST</text>
  <text class="t cyan bold" x="728" y="100">CPU%</text>
  <text class="t cyan bold" x="778" y="100">MEM%</text>

  <!-- Separator -->
  <rect class="border" x="8" y="108" width="804" height="1"/>

  <!-- Row 1 (selected) -->
  <rect class="sel-bg" x="8" y="112" width="804" height="18" opacity="0.9"/>
  <text class="t bold" x="12" y="125" fill="#ffffff">></text>
  <text class="t bold" x="20" y="125" fill="#ffffff">48291</text>
  <text class="t bold" x="72" y="125" fill="#ffffff">ACTIVE</text>
  <text class="t bold" x="142" y="125" fill="#ffffff">27%</text>
  <text class="t bold" x="186" y="125" fill="#ffffff">2m ago</text>
  <text class="t bold" x="262" y="125" fill="#ffffff">feat/add-auth-middleware</text>
  <text class="t bold" x="440" y="125" fill="#ffffff">implement-oauth</text>
  <text class="t bold" x="570" y="125" fill="#ffffff">opus-4-6</text>
  <text class="t bold" x="668" y="125" fill="#ffffff">$1.23</text>
  <text class="t bold" x="728" y="125" fill="#ffffff">12.4</text>
  <text class="t bold" x="778" y="125" fill="#ffffff">3.2</text>

  <!-- Selected row detail -->
  <text class="t cyan" x="26" y="143">claude-opus-4-6</text>
  <text class="t dim" x="155" y="143">stop: end_turn</text>

  <!-- Row 2 -->
  <text class="t cyan" x="20" y="163">51034</text>
  <text class="t green" x="72" y="163">ACTIVE</text>
  <text class="t green" x="142" y="163">45%</text>
  <text class="t" x="186" y="163">18m ago</text>
  <text class="t yellow" x="262" y="163">fix/memory-leak-pool</text>
  <text class="t dim" x="440" y="163">debug-connection</text>
  <text class="t cyan" x="570" y="163">sonnet-4-6</text>
  <text class="t green" x="668" y="163">$0.87</text>
  <text class="t" x="728" y="163">8.2</text>
  <text class="t" x="778" y="163">5.1</text>

  <!-- Row 3 -->
  <text class="t cyan" x="20" y="183">49872</text>
  <text class="t green" x="72" y="183">ACTIVE</text>
  <text class="t yellow" x="142" y="183">68%</text>
  <text class="t" x="186" y="183">1h ago</text>
  <text class="t yellow" x="262" y="183">main</text>
  <text class="t dim" x="440" y="183">refactor-tests</text>
  <text class="t cyan" x="570" y="183">sonnet-4-6</text>
  <text class="t yellow" x="668" y="183">$0.35</text>
  <text class="t yellow" x="728" y="183">24.7</text>
  <text class="t" x="778" y="183">8.4</text>

  <!-- Row 4 (dead) -->
  <text class="t cyan" x="20" y="203">47103</text>
  <text class="t dim" x="72" y="203">SLEEPING</text>
  <text class="t dim" x="142" y="203">12%</text>
  <text class="t" x="186" y="203">3h ago</text>
  <text class="t yellow" x="262" y="203">chore/update-deps</text>
  <text class="t dim" x="440" y="203">update-packages</text>
  <text class="t cyan" x="570" y="203">haiku-4-5</text>
  <text class="t" x="668" y="203">$0.02</text>
  <text class="t" x="728" y="203">0.0</text>
  <text class="t" x="778" y="203">1.2</text>

  <!-- Footer separator -->
  <rect class="border" x="8" y="424" width="804" height="1"/>

  <!-- Footer -->
  <text class="t bold" x="14" y="442">KEYS:</text>
  <text class="t cyan" x="56" y="442">hjkl</text>
  <text class="t" x="88" y="442">Nav</text>
  <text class="t red" x="120" y="442">x</text>
  <text class="t" x="130" y="442">Kill</text>
  <text class="t red" x="162" y="442">X</text>
  <text class="t" x="172" y="442">Force</text>
  <text class="t cyan" x="212" y="442">o</text>
  <text class="t" x="222" y="442">Open</text>
  <text class="t cyan" x="258" y="442">s</text>
  <text class="t" x="268" y="442">Sort</text>
  <text class="t cyan" x="300" y="442">/</text>
  <text class="t" x="310" y="442">Filter</text>
  <text class="t cyan" x="354" y="442">F</text>
  <text class="t" x="364" y="442">Search</text>
  <text class="t cyan" x="412" y="442">L</text>
  <text class="t" x="422" y="442">Log</text>
  <text class="t cyan" x="452" y="442">T</text>
  <text class="t" x="462" y="442">Theme</text>
  <text class="t cyan" x="504" y="442">d</text>
  <text class="t" x="514" y="442">Dash</text>
  <text class="t cyan" x="550" y="442">H</text>
  <text class="t" x="560" y="442">History</text>
  <text class="t cyan" x="610" y="442">n</text>
  <text class="t" x="620" y="442">Notif</text>
  <text class="t cyan" x="662" y="442">P</text>
  <text class="t" x="672" y="442">Pane</text>
  <text class="t cyan" x="708" y="442">r</text>
  <text class="t" x="718" y="442">Refresh</text>
  <text class="t cyan" x="768" y="442">q</text>
  <text class="t" x="778" y="442">Quit</text>
</svg>
