<svg xmlns="http://www.w3.org/2000/svg" width="820" height="460" viewBox="0 0 820 460">
  <style>
    .bg { fill: #0d1117; }
    .t { font-family: 'JetBrains Mono', 'Fira Code', 'SF Mono', 'Menlo', monospace; font-size: 12px; fill: #e6edf3; }
    .t11 { font-family: 'JetBrains Mono', 'Fira Code', 'SF Mono', 'Menlo', monospace; font-size: 11px; fill: #e6edf3; }
    .dim { fill: #484f58; }
    .green { fill: #3fb950; }
    .red { fill: #f85149; }
    .yellow { fill: #d29922; }
    .cyan { fill: #58a6ff; }
    .orange { fill: #d18616; }
    .bold { font-weight: bold; }
    .header-bg { fill: #d18616; }
    .sel-bg { fill: #d18616; }
    .border { fill: #30363d; }
    .title-bar { fill: #161b22; }
    .card-border { stroke: #30363d; stroke-width: 1; fill: none; }
    .card-sel { stroke: #d18616; stroke-width: 2; fill: rgba(209,134,22,0.1); }
  </style>

  <!-- Terminal window -->
  <rect class="bg" width="820" height="460" rx="8"/>

  <!-- Title bar -->
  <rect class="title-bar" width="820" height="28" rx="8"/>
  <rect class="title-bar" width="820" height="14" y="14"/>
  <circle fill="#ff5f57" cx="16" cy="14" r="5"/>
  <circle fill="#febc2e" cx="32" cy="14" r="5"/>
  <circle fill="#28c840" cx="48" cy="14" r="5"/>
  <text class="t dim" x="370" y="18" text-anchor="middle" font-size="11">ctop</text>

  <!-- Header border top -->
  <rect class="border" x="8" y="36" width="804" height="1"/>

  <!-- Header bar -->
  <rect class="header-bg" x="8" y="37" width="804" height="22"/>
  <text class="t bold" x="250" y="52" fill="#ffffff">CTOP &#8212; Claude Terminal Operations Panel</text>

  <!-- Header border bottom -->
  <rect class="border" x="8" y="59" width="804" height="1"/>

  <!-- Stats line -->
  <text class="t dim" x="14" y="76">Active:</text>
  <text class="t green" x="66" y="76">5</text>
  <text class="t dim" x="78" y="76">| Dead/Stopped:</text>
  <text class="t red" x="188" y="76">1</text>
  <text class="t dim" x="200" y="76">| Total Cost:</text>
  <text class="t green" x="296" y="76">$4.18</text>
  <text class="t dim" x="340" y="76">| Notif:</text>
  <text class="t green" x="392" y="76">ON</text>
  <text class="t dim" x="416" y="76">| 2:34:12 PM</text>

  <!-- Separator -->
  <rect class="border" x="8" y="84" width="804" height="1"/>

  <!-- Card Row 1 -->

  <!-- Card 1 (selected) -->
  <rect class="card-sel" x="14" y="94" width="250" height="136" rx="3"/>
  <rect fill="#d18616" x="14" y="94" width="250" height="136" rx="3" opacity="0.08"/>
  <text class="t bold" x="22" y="112" fill="#ffffff">PID:48291</text>
  <text class="t bold" x="196" y="112" fill="#ffffff">&#9679; ACTIVE</text>
  <text class="t11 bold" x="22" y="130" fill="#ffffff">CPU:12.4%</text>
  <text class="t11 bold" x="192" y="130" fill="#ffffff">MEM:3.2%</text>
  <text class="t11 bold" x="22" y="148" fill="#ffffff">CTX: 27%</text>
  <text class="t11 cyan bold" x="22" y="166">opus-4-6</text>
  <text class="t11 yellow bold" x="132" y="166">feat/add-auth</text>
  <text class="t11 dim" x="22" y="184">implement-oauth</text>
  <text class="t11" x="22" y="202" fill="#ffffff">Add OAuth2 middleware...</text>

  <!-- Card 2 -->
  <rect class="card-border" x="272" y="94" width="250" height="136" rx="3"/>
  <text class="t cyan" x="280" y="112">PID:51034</text>
  <text class="t green" x="454" y="112">&#9679; ACTIVE</text>
  <text class="t11" x="280" y="130">CPU:8.2%</text>
  <text class="t11" x="450" y="130">MEM:5.1%</text>
  <text class="t11 green" x="280" y="148">CTX: 45%</text>
  <text class="t11 cyan" x="280" y="166">sonnet-4-6</text>
  <text class="t11 yellow" x="376" y="166">fix/memory-leak</text>
  <text class="t11 dim" x="280" y="184">debug-connection</text>
  <text class="t11" x="280" y="202">Fix pool connection...</text>

  <!-- Card 3 -->
  <rect class="card-border" x="530" y="94" width="250" height="136" rx="3"/>
  <text class="t cyan" x="538" y="112">PID:49872</text>
  <text class="t green" x="712" y="112">&#9679; ACTIVE</text>
  <text class="t11" x="538" y="130">CPU:24.7%</text>
  <text class="t11" x="708" y="130">MEM:8.4%</text>
  <text class="t11 yellow" x="538" y="148">CTX: 68%</text>
  <text class="t11 cyan" x="538" y="166">sonnet-4-6</text>
  <text class="t11 yellow" x="640" y="166">main</text>
  <text class="t11 dim" x="538" y="184">refactor-tests</text>
  <text class="t11" x="538" y="202">Refactor test suite...</text>

  <!-- Card Row 2 -->

  <!-- Card 4 -->
  <rect class="card-border" x="14" y="240" width="250" height="136" rx="3"/>
  <text class="t cyan" x="22" y="258">PID:47103</text>
  <text class="t dim" x="188" y="258">&#9675; SLEEPING</text>
  <text class="t11" x="22" y="276">CPU:0.0%</text>
  <text class="t11" x="192" y="276">MEM:1.2%</text>
  <text class="t11 dim" x="22" y="294">CTX: 12%</text>
  <text class="t11 cyan" x="22" y="312">haiku-4-5</text>
  <text class="t11 yellow" x="112" y="312">chore/update-deps</text>
  <text class="t11 dim" x="22" y="330">update-packages</text>
  <text class="t11" x="22" y="348">Update npm deps...</text>

  <!-- Card 5 -->
  <rect class="card-border" x="272" y="240" width="250" height="136" rx="3"/>
  <text class="t cyan" x="280" y="258">PID:52401</text>
  <text class="t green" x="454" y="258">&#9679; ACTIVE</text>
  <text class="t11" x="280" y="276">CPU:15.3%</text>
  <text class="t11" x="450" y="276">MEM:4.8%</text>
  <text class="t11 green" x="280" y="294">CTX: 33%</text>
  <text class="t11 cyan" x="280" y="312">opus-4-6</text>
  <text class="t11 yellow" x="376" y="312">feat/api-v2</text>
  <text class="t11 dim" x="280" y="330">build-rest-api</text>
  <text class="t11" x="280" y="348">Implement REST API...</text>

  <!-- Card 6 -->
  <rect class="card-border" x="530" y="240" width="250" height="136" rx="3"/>
  <text class="t cyan" x="538" y="258">PID:53112</text>
  <text class="t green" x="712" y="258">&#9679; ACTIVE</text>
  <text class="t11" x="538" y="276">CPU:5.1%</text>
  <text class="t11" x="708" y="276">MEM:2.9%</text>
  <text class="t11 green" x="538" y="294">CTX: 19%</text>
  <text class="t11 cyan" x="538" y="312">sonnet-4-6</text>
  <text class="t11 yellow" x="640" y="312">docs/readme</text>
  <text class="t11 dim" x="538" y="330">update-docs</text>
  <text class="t11" x="538" y="348">Update documentation...</text>

  <!-- Footer separator -->
  <rect class="border" x="8" y="424" width="804" height="1"/>

  <!-- Footer -->
  <text class="t bold" x="14" y="442">KEYS:</text>
  <text class="t cyan" x="56" y="442">hjkl</text>
  <text class="t" x="88" y="442">Nav</text>
  <text class="t red" x="120" y="442">x</text>
  <text class="t" x="130" y="442">Kill</text>
  <text class="t red" x="162" y="442">X</text>
  <text class="t" x="172" y="442">Force</text>
  <text class="t cyan" x="212" y="442">o</text>
  <text class="t" x="222" y="442">Open</text>
  <text class="t cyan" x="258" y="442">s</text>
  <text class="t" x="268" y="442">Sort</text>
  <text class="t cyan" x="300" y="442">/</text>
  <text class="t" x="310" y="442">Filter</text>
  <text class="t cyan" x="354" y="442">F</text>
  <text class="t" x="364" y="442">Search</text>
  <text class="t cyan" x="412" y="442">L</text>
  <text class="t" x="422" y="442">Log</text>
  <text class="t cyan" x="452" y="442">T</text>
  <text class="t" x="462" y="442">Theme</text>
  <text class="t cyan" x="504" y="442">d</text>
  <text class="t" x="514" y="442">Dash</text>
  <text class="t cyan" x="550" y="442">H</text>
  <text class="t" x="560" y="442">History</text>
  <text class="t cyan" x="610" y="442">n</text>
  <text class="t" x="620" y="442">Notif</text>
  <text class="t cyan" x="662" y="442">P</text>
  <text class="t" x="672" y="442">List</text>
  <text class="t cyan" x="708" y="442">r</text>
  <text class="t" x="718" y="442">Refresh</text>
  <text class="t cyan" x="768" y="442">q</text>
  <text class="t" x="778" y="442">Quit</text>
</svg>
